<svg width="194" height="46" viewBox="0 0 194 46" fill="none" xmlns="http://www.w3.org/2000/svg">
<g clip-path="url(#clip0_4532_453)">
<path d="M65.2467 38.7689C61.7008 38.7689 58.9688 37.8386 56.9924 36.0362C55.016 34.2337 54.0859 31.501 54.0859 27.8379V11.3832C54.0859 11.0925 54.1441 10.86 54.3184 10.6855C54.4928 10.5111 54.7254 10.3948 55.016 10.3948H58.62C58.9106 10.3948 59.1431 10.5111 59.3175 10.6855C59.4919 10.86 59.6082 11.0925 59.6082 11.3832V27.8379C59.6082 29.9311 60.0732 31.4428 61.0614 32.4894C62.0496 33.536 63.4447 34.0593 65.2467 34.0593C67.0486 34.0593 68.4437 33.536 69.3738 32.4894C70.362 31.4428 70.8851 29.8729 70.8851 27.8379V11.3832C70.8851 11.0925 71.0014 10.86 71.1758 10.6855C71.3502 10.5111 71.5827 10.3948 71.8733 10.3948H75.4773C75.768 10.3948 76.0005 10.5111 76.1167 10.6855C76.2911 10.86 76.4074 11.0925 76.4074 11.3832V27.8379C76.4074 31.501 75.4192 34.2337 73.5009 36.0362C71.4664 37.8968 68.7344 38.7689 65.2467 38.7689Z" fill="#1488CC"/>
<path d="M93.0904 38.7689C90.3584 38.7689 88.3239 37.8386 86.8707 35.978V37.8386C86.8707 38.1294 86.7544 38.3038 86.58 38.4782C86.4056 38.6526 86.1731 38.7689 85.8825 38.7689H82.7435C82.511 38.7689 82.2785 38.6526 82.1041 38.4782C81.9297 38.3038 81.8135 38.0712 81.8135 37.8386V11.3251C81.8135 11.0344 81.9297 10.8018 82.1041 10.6855C82.2785 10.5111 82.511 10.3948 82.7435 10.3948H86.1731C86.4638 10.3948 86.6963 10.5111 86.8126 10.6855C86.9869 10.86 87.1032 11.0925 87.1032 11.3251V20.1629C88.5564 18.4186 90.5328 17.5465 93.0904 17.5465C95.6481 17.5465 97.7408 18.4186 99.1358 20.1629C100.589 21.8491 101.345 24.1167 101.403 26.9076C101.403 27.1983 101.461 27.6635 101.461 28.1868C101.461 28.7101 101.461 29.1171 101.403 29.4659C101.287 32.315 100.531 34.5826 99.1358 36.2688C97.7408 37.9549 95.7062 38.7689 93.0904 38.7689ZM91.521 34.5244C94.3112 34.5244 95.8225 32.7801 95.9969 29.3497C95.9969 29.0589 96.055 28.7101 96.055 28.1868C96.055 27.6635 96.055 27.2565 95.9969 27.0239C95.8225 23.5934 94.3112 21.8491 91.521 21.8491C90.0678 21.8491 89.0214 22.3143 88.2658 23.2446C87.5101 24.1749 87.1032 25.2796 87.0451 26.5588C87.0451 26.8495 86.9869 27.3728 86.9869 28.0705C86.9869 28.7682 86.9869 29.2334 87.0451 29.5822C87.1032 30.9777 87.5101 32.1406 88.2076 33.129C88.9052 34.0593 90.0096 34.5244 91.521 34.5244Z" fill="#1488CC"/>
<path d="M106.634 38.7689C106.402 38.7689 106.169 38.6526 105.995 38.4782C105.82 38.3038 105.704 38.0712 105.704 37.8386V19.2908C105.704 19.0001 105.82 18.7675 105.995 18.6512C106.169 18.4768 106.402 18.3605 106.634 18.3605H109.947C110.18 18.3605 110.413 18.4768 110.587 18.6512C110.761 18.8256 110.878 19.0582 110.878 19.2908V37.8386C110.878 38.1293 110.761 38.3038 110.587 38.4782C110.413 38.6526 110.18 38.7689 109.947 38.7689H106.634Z" fill="#1488CC"/>
<path d="M108.378 10.3948C106.635 10.3948 105.763 11.1507 105.763 12.7206C105.763 14.2904 106.635 15.0463 108.378 15.0463C109.25 15.0463 109.89 14.8719 110.355 14.4649C110.82 14.0579 110.994 13.4764 110.994 12.7206C110.994 11.1507 110.122 10.3948 108.378 10.3948Z" fill="#1488CC"/>
<path d="M130.583 45.9206C130.351 45.9206 130.118 45.8043 129.944 45.6299C129.769 45.4555 129.653 45.2229 129.653 44.9903V35.9781C128.258 37.8387 126.282 38.769 123.608 38.769C120.934 38.769 118.958 37.9549 117.562 36.2688C116.167 34.5826 115.412 32.315 115.295 29.5822L115.237 28.1868L115.295 26.7914C115.412 24.0005 116.167 21.7328 117.562 20.1048C118.958 18.4187 120.992 17.6046 123.608 17.6046C126.224 17.6046 128.433 18.5931 129.886 20.5118V18.9419C129.886 18.6512 130.002 18.4187 130.176 18.3024C130.351 18.1279 130.583 18.0117 130.816 18.0117H133.955C134.245 18.0117 134.478 18.1279 134.594 18.3024C134.769 18.4768 134.885 18.7094 134.885 18.9419V44.9903C134.885 45.281 134.769 45.5136 134.594 45.6299C134.42 45.8043 134.245 45.9206 133.955 45.9206H130.583ZM125.119 34.5245C126.572 34.5245 127.619 34.0593 128.374 33.129C129.13 32.1987 129.595 31.094 129.653 29.8148C129.653 29.466 129.711 28.9427 129.711 28.3031C129.711 27.6054 129.711 27.1402 129.653 26.7914C129.595 25.3959 129.188 24.1749 128.433 23.2446C127.677 22.2561 126.572 21.791 125.119 21.791C122.329 21.791 120.876 23.5353 120.701 26.9658C120.701 27.2565 120.643 27.6054 120.643 28.1287C120.643 28.6519 120.643 29.059 120.701 29.2915C120.876 32.8383 122.329 34.5245 125.119 34.5245Z" fill="#1488CC"/>
<path d="M147.615 38.7689C145.232 38.7689 143.314 37.9549 141.919 36.3851C140.524 34.8152 139.826 32.6639 139.826 29.873V18.8257C139.826 18.5349 139.942 18.3024 140.117 18.1861C140.291 18.0116 140.524 17.8954 140.756 17.8954H144.302C144.535 17.8954 144.767 18.0116 144.942 18.1861C145.116 18.3605 145.232 18.5931 145.232 18.8257V29.6404C145.232 32.8383 146.627 34.4663 149.417 34.4663C150.754 34.4663 151.859 34.0593 152.614 33.1872C153.428 32.315 153.835 31.1521 153.835 29.6404V18.8838C153.835 18.5931 153.951 18.3605 154.126 18.2442C154.3 18.0698 154.533 17.9535 154.765 17.9535H158.253C158.544 17.9535 158.776 18.0698 158.892 18.2442C159.067 18.4186 159.183 18.6512 159.183 18.8838V37.8386C159.183 38.1294 159.067 38.3038 158.892 38.4782C158.718 38.6527 158.486 38.7689 158.253 38.7689H155.056C154.823 38.7689 154.591 38.6527 154.416 38.4782C154.242 38.3038 154.126 38.0712 154.126 37.8386V35.8036C152.731 37.7805 150.58 38.7689 147.615 38.7689Z" fill="#1488CC"/>
<path d="M165.402 38.7689C165.17 38.7689 164.937 38.6526 164.763 38.4782C164.588 38.3038 164.472 38.0712 164.472 37.8386V19.2908C164.472 19.0001 164.588 18.7675 164.763 18.6512C164.937 18.4768 165.17 18.3605 165.402 18.3605H168.716C168.948 18.3605 169.181 18.4768 169.355 18.6512C169.529 18.8256 169.646 19.0582 169.646 19.2908V37.8386C169.646 38.1293 169.529 38.3038 169.355 38.4782C169.181 38.6526 168.948 38.7689 168.716 38.7689H165.402Z" fill="#1488CC"/>
<path d="M167.03 10.3948C165.286 10.3948 164.414 11.1507 164.414 12.7206C164.414 14.2904 165.286 15.0463 167.03 15.0463C167.902 15.0463 168.541 14.8719 169.006 14.4649C169.471 14.0579 169.646 13.4764 169.646 12.7206C169.646 11.1507 168.774 10.3948 167.03 10.3948Z" fill="#1488CC"/>
<path d="M182.318 38.7689C179.703 38.7689 177.668 37.9549 176.273 36.2688C174.878 34.5826 174.122 32.315 173.948 29.4659L173.89 28.1868L173.948 26.9076C174.064 24.1167 174.82 21.9073 176.215 20.1629C177.668 18.4186 179.703 17.5465 182.318 17.5465C184.934 17.5465 186.794 18.4186 188.306 20.1629V11.3251C188.306 11.0344 188.422 10.8018 188.596 10.6855C188.771 10.5111 189.003 10.3948 189.236 10.3948H192.665C192.956 10.3948 193.188 10.5111 193.305 10.6855C193.479 10.86 193.595 11.0925 193.595 11.3251V37.8386C193.595 38.1294 193.479 38.3038 193.305 38.4782C193.13 38.6526 192.956 38.7689 192.665 38.7689H189.526C189.294 38.7689 189.061 38.6526 188.887 38.4782C188.712 38.3038 188.596 38.0712 188.596 37.8386V36.0362C187.085 37.8386 184.992 38.7689 182.318 38.7689ZM183.772 34.5244C185.283 34.5244 186.329 34.0593 187.027 33.129C187.782 32.1406 188.189 30.9777 188.247 29.5241C188.247 29.2334 188.306 28.7101 188.306 28.0123C188.306 27.3146 188.306 26.7913 188.247 26.5006C188.189 25.1633 187.782 24.0586 187.027 23.1864C186.271 22.2561 185.167 21.791 183.772 21.791C180.981 21.791 179.47 23.5353 179.296 26.9658L179.237 28.1286L179.296 29.2915C179.528 32.8383 180.981 34.5244 183.772 34.5244Z" fill="#1488CC"/>
<path fill-rule="evenodd" clip-rule="evenodd" d="M38.7749 11.4646V39.4899C38.7749 40.4202 38.0774 41.1179 37.1473 41.1179H3.72331C2.79325 41.1179 2.0957 40.4202 2.0957 39.4899V5.94098C2.0957 5.06883 2.85138 4.31296 3.72331 4.31296H31.7414C32.2064 4.31296 32.6133 4.48739 32.9621 4.83625L36.3742 8.35976L38.3099 10.3599C38.6006 10.6506 38.7749 11.0576 38.7749 11.4646Z" fill="#1488CC"/>
<path fill-rule="evenodd" clip-rule="evenodd" d="M3.72291 2.91751C2.03718 2.91751 0.64209 4.25482 0.64209 5.94098V39.4318C0.64209 41.1179 2.03718 42.4552 3.72291 42.4552H37.0888C37.6701 42.4552 38.2514 42.2808 38.7164 41.9901C38.8908 41.8738 39.3558 41.4668 39.7046 41.0016C39.9952 40.5365 40.1696 40.0132 40.1696 39.4318V11.4646C40.1696 10.7088 39.879 9.9529 39.3558 9.37146L34.008 3.84781C33.4267 3.26637 32.6129 2.91751 31.7991 2.91751H3.72291ZM38.7164 39.4318C38.7164 39.6062 38.6583 39.7806 38.6002 39.9551L32.9617 34.3733V10.4762H23.4286V26.8146H17.0925V10.4762H7.15251V35.4198H30.0552V13.4997H26.0443V30.3032H14.128V13.4997H10.1171V31.0009H11.5122V14.8951H12.6747V31.6986H27.3813V14.8951H28.5439V34.0244H8.5476V11.8716H15.6393V28.21H24.8236V11.8716H31.5084V35.0128L37.5538 41.0016C37.3795 41.0598 37.2051 41.1179 36.9725 41.1179H3.72291C2.79285 41.1179 2.09531 40.4202 2.09531 39.4899V5.94098C2.09531 5.06883 2.85098 4.31296 3.72291 4.31296H31.741C32.206 4.31296 32.6129 4.48739 32.9617 4.83625L38.3095 10.3599C38.6002 10.6506 38.7745 11.0576 38.7745 11.4646L38.7164 39.4318Z" fill="white"/>
</g>
<defs>
<clipPath id="clip0_4532_453">
<rect width="192.953" height="45.3521" fill="white" transform="translate(0.64209 0.591782)"/>
</clipPath>
</defs>
</svg>
